<svg xmlns="http://www.w3.org/2000/svg" width="500" height="500"><path fill="#0497f5" d="m291 16 7 1q46 9 87 34l3 2 2 1v2l2 1q6 2 11 6v2l2 1 7 5 2 1 2 2v2h2v2h2v2h2v2h2v2h2l4 5 2 3 2 1 4 5a280 280 0 0 1 35 57c8 14 8 14 9 19l-1 3-5-7-1-1-1-3-1-2-3-7h-2l-1-2q-6-12-15-22l-1-4h-2q-4-3-3-6h-2l-2-5h-2v-2h-2l-3-4-7-7-3-2v-2h-2v-2h-2v-2l-2-1-8-6-18-12-3-2q-37-23-81-28h-3c-54-5-114 6-158 39l-4 1v2l-3 3-2 1-4 1v2l-3 3-3 2-2 2-17 17-1 2q-36 43-46 98l-1 3c-10 54-1 117 30 164l5 6 2 5h2l4 4c6 9 6 9 15 16v2l2 1 5 3v2l2 1 7 4 21 15 5 3q22 14 46 23l2 1q21 8 42 11v2q-35 2-68-12l-12-5-17-7-7-3q-16-6-31-17l-4-3-4-2-2-2-5-3v-2l-2-1-7-4v-2l-2-1-7-5v-2h-2q-5-4-4-7h-2v-2h-2l-4-4-2-3-1-4h-2l-3-4-2-2-1-3-2-2-7-12h-2l-1-2-8-14q-16-27-21-59l-3-10q-4-20-3-40v-4q0-21 4-41l1-3q6-32 22-61l1-2q8-14 17-27l2-3 1-2 2-2 1-1h2l1-2 3-5h2l1-2 5-6 2-3 3-2 3-3 2-2 2-2 4-2v-2l6-5 1-1c18-13 18-13 21-13v-2q46-27 100-35h2q34-6 68 1"/><path fill="#06a9e5" d="M255 72v3l-3 1-21 9-5 1v2l-2 1-15 9-4 2-12 8-4 2v2l-4 3-7 6-4 2v2h-2v2l-4 4h-2v2h-2l-1 2-5 7-1 2-2 2h-2l-1 2-4 7a166 166 0 0 0-31 95v3q-3 49 21 94l4 9h2l3 4 5 7 1 4h2v2h2q5 4 4 7h2v2l2 1 6 4 2 2 1 3 2 1 8 6 20 12 2 1q15 9 33 13l2 1a153 153 0 0 0 59 7q50 0 98-17l17-4q-2 5-8 8h-2v2l-4 3-9 5-27 14-7 3-18 8-3 1q-27 8-53 8h-4q-25-1-49-6l-3-1q-29-7-55-22v-2h-2l-9-5v-2l-2-1-9-5v-2l-2-1-4-2v-2l-2-1-5-3v-2h-2v-2h-2v-2h-2l-5-5-2-3-2-5h-2l-2-5h-2l-3-4-2-3-2-3-2-3q-20-29-28-64l-1-3c-9-44-2-94 20-133l1-2 6-10h2l1-2q2-5 5-9l2-2 3-4h2l1-2 3-5h2l1-2 5-6 1-2 4-1v-2h2v-2q4-5 7-4v-2l4-4 3-2 4-1v-2l3-2h1l4-3 9-5c22-14 53-25 80-24"/><path fill="#304dec" d="m378 111 3 1q11 6 21 14l4 2 5 4v2h2v2l2 1 5 4v2h2v2h2l5 6 1 1 5 10h2l7 12 2 3c10 19 10 19 9 26l-1 2-7-10-1-2-4-8h-2l-3-5c-5-7-5-7-12-13v-2h-2v-2h-2v-2l-5-2v-2l-2-1-6-3c-11-8-11-8-23-14l-2-1q-16-7-34-10l-4-1q-41-6-80 8l-2 1q-10 4-21 10h-3v2l-5 3-10 8h-2v2h-2v2l-3 3h-2v2h-2v2h-2l-1 2-4 6c-17 23-30 52-30 81v19c1 19 5 43 16 59l2 6h2l4 9h2l3 3q10 16 25 25l2 2v2h3v2l6 2v2h2l10 5q27 15 57 20v2q-33 2-63-10l-3-1q-26-11-47-30l-5-4v-2h-2v-2h-2l-5-7-2-2q-5-4-6-10h-2c-10-12-17-30-22-45l-1-3a122 122 0 0 1-6-49q-2-49 25-90l2-3 4-6h2v-2h2l1-2q5-7 12-13h2v-2h2v-2l3-3 3-1 2-2 3-1c50-33 116-40 171-14"/><path fill="#18659b" d="m369 167 3 1 17 12 5 4v2h2v2h2v2h2l4 4 2 3 1 4h2l6 10 1 2c12 22 14 52 8 76q-6 20-21 36h-2v2l-6 5-2 2q-38 29-85 24-20-3-36-14v-2l-2-1-8-5-3-3-4-6-3-1-2-5h-2q-3-3-3-8l8 5 2 2 1 3 2 1 7 4 2 1 2 1v2h2l12 5 21 4h3q41 1 72-26 25-26 24-62-1-26-13-48l-2-5h-2l-3-4c-15-20-38-28-61-31l-26-1v-2c22-9 53-6 73 5"/><path fill="#136ceb" d="m99 402 9 6 12 11v2l2 1 5 3v2l2 1 7 4 21 15 5 3q22 14 46 23l2 1q21 8 42 11v2q-35 2-68-12l-12-5-17-7-7-3q-16-6-31-17l-2-1q-4-2-6-7v-2q5 0 8 3h2l1 5 4 1v3l4-1 1-2-3-1 1-3 3 1 3-3-3-1v-4h-2l-3-1-2-5q-3-3-8-3v-3l-4-2v-2l-2 1-4-1-1-8-3-1v-2h-2v4h-5z"/><path fill="#23c6ce" d="m369 167 3 1 17 12 5 4v2h2v2h2v2h2l4 4 2 3 1 4h2l6 10 1 2q8 13 8 27-3-4-5-9l-1-3-2-6-1-4-1-3-4-4v-2l-2-1-3-4-6-7-2-5q-4 1-5 4l-1 2 2 1-2 1 2 1v3l6 1v4q-1 8 3 14l4 1-1 2v28q1 13-3 26l-1 3-1 3v-9q10-36-8-68l-2-4-2-5h-2l-3-4c-15-20-38-28-61-31l-26-1v-2c22-9 53-6 73 5"/><path fill="#7418ce" d="m202 358 10 7c9 9 9 9 20 17v2h3v2l6 2v2h2l10 5q27 15 57 20v2q-33 2-63-10l-3-1c-15-6-42-18-50-34l6 4 5 1v-2q2-4 5-6h-2v-4l-6 3-2-5 2-3z"/><path fill="#0964e9" d="M158 453q13 2 25 9l25 11 2 1q21 8 42 11v2a165 165 0 0 1-76-15l-3-1-4-2-6-2-1-3-3-1-2-4-2-2z"/><path fill="#3084f3" d="m405 129 6 3v2h2v2l2 1 5 4v2h2v2h2l5 6 1 1 5 10h2l7 12 2 3c10 19 10 19 9 26l-1 2-7-10-1-2-4-8h-2l-3-5c-5-7-5-7-12-13v-2h-2v-2h-2v-2l-5-2v-2l-2-1-6-3-2-2-2-1-5-3-2-2-5-3-2-1v-1q9 0 16 6l4 3 6 2 2-1 1 3 4 1-4-7-1-5-5-1-1-5h-2l-3-3-1-2z"/><path fill="#44cdd5" d="m385 178 9 6v2h2v2h2v2h2l4 4 2 3 1 4h2l6 10 1 2q8 13 8 27-3-4-5-9l-1-3-2-6-1-4-1-3-4-4v-2l-2-1-3-4-6-7-2-5q-4 1-5 4l-1 2 2 1-2 1 2 1v3l6 1v4q-1 8 3 14l4 1-1 2v28q1 13-3 26l-1 3-1 3v-9q10-36-8-68l-2-4-2-5h-2l-3-4-14-14q5 0 8 5l3 2 2 2v-2l1-4 4-2v-3h-2z"/><path fill="#4dcdf5" d="M407 86q7 1 11 6l3 1v2h2l4 5c6 8 6 8 15 14v3h2q1-5-3-9v-2h-2l-2-5 1-2 17 23 3 5 15 28c8 14 8 14 9 19l-1 3-5-7-1-1-1-3-1-2-3-7h-2l-1-2q-6-12-15-22l-1-4h-2q-4-3-3-6h-2l-2-5h-2v-2h-2l-3-4-7-7-3-2v-2h-2v-2h-2v-2l-2-1-7-5-3-2-2-2z"/><path fill="#6ed9de" d="M326 158h4q18-1 34 7h-7l-12-1v2l5 2v2h5v2l2 1 8 4 2 2 2 1q-5 0-11-4-29-15-62-12v-2q15-5 30-4"/><path fill="#85dff8" d="m293 16 5 1q15 3 30 8v1q-11 0-23-3v-2h-3l-8-1-6 1h-2l-2-1q-3-2-7-3h-9l-18-1-8 1h-3l-6 1h-5l-3 1h-7l-6 1q-7 0-16 2h-7q4-3 9-3l4-1 3-1h2q43-8 86-1"/><path fill="#6eceef" d="M256 47v1h-2c-38 6-75 16-106 39l-4 1v2l-3 3-2 1-2 1-2-1 3-6 1-2 3-3v2h2l2-4h4l1-2h3v-3h6l1-3h3v-2h4v-2l19-8 3-1 6-1q12-2 23-7l7-1v-2l11-1h2z"/><path fill="#b4a1ca" d="m245 313 8 5 2 2 1 3 2 1 7 4 2 1 2 1v2h2l12 5 21 4h24v1l-17 1h-2q-12 0-23-3h-9l-1 2 4 5-8-3v-2l-2-1-8-5-3-3-4-6-3-1-2-5h-2q-3-3-3-8"/><path fill="#5bc5e9" d="M255 72v3l-3 1-21 9-5 1v2l-2 1-15 9-6 2 1-5h4v-2h3v-2h2v-2h7v-2l1-2 3-1v-2q-7 0-14 2h-7c13-9 37-12 52-12"/><path fill="#782ac4" d="M232 384h3v2l6 2v2h2l10 5q27 15 57 20v2q-22 0-43-4l-2-1c-6-1-6-1-8-3h18l-5-2v-2h-2l-15-7-6-1v-2l-3-1q-3-1-5-4l-3-1-3-1z"/><path fill="#7eddf6" d="M275 45h18q30-3 59 9l7 2c16 6 16 6 19 9v3l2 1-12-4q-44-19-93-18h-19v-1z"/><path fill="#7315d4" d="m202 358 10 7c9 9 9 9 20 17l-1 2-5-2-5-2v-3q-7 0-12 6v2l-9-6-3-3-3-4 6 4 5 1v-2q2-4 5-6h-2v-4l-6 3-2-5 2-3z"/><path fill="#60c6e7" d="M415 412q-2 6-8 8h-2v2l-4 3-10 5-2 2-4 2-5 3-3-1 3-2 5-2 2-1 2-2 2-1q3-2 3-5h3-11l-3 2-8 1h-2l-5 1v2h-15l7-3 3-1h3l25-7 4-1 12-4z"/><path fill="#7416d1" d="m241 392 5 3 4 1 10 5v2h2l5 2-1 4-11-2h-3l-5-3h-2l-7-4-3-2-2-1v-2l-5-1h2l2-1 1-2q5-1 8 1"/><path fill="#0fb9f2" d="M418 78h2v2h2v2h2v2h2l5 5 6 8 1 5 1 2v2h2c4 5 4 5 4 9l-1 2h-2v-3h-2l-8-6-1-2-8-9 1-2 4 1-1-5h-2l-1-3q-2-3-5-4z"/><path fill="#a2e3f4" d="m232 424 15 4a142 142 0 0 0 53 5q21 1 43-4h9v1l-3 1-5 1h-2l-7 3h-10l-4 1h-55q-9 0-17-4l-4-1-5-2v-2h-3z"/><path fill="#865fd5" d="M146 223h1l-1 13h2v35l2 2-1 1v8l1 2v5h2v3l3 10h-3v-2h-2q-7-20-6-41v-7c0-23 0-23 2-29"/><path fill="#a0c5ef" d="m175 459 8 3 2 1 2 1q30 15 65 21v2q-20 1-38-4v-3h-2v-3l-3-1-22-9-2-1z"/><path fill="#6eb7ef" d="m74 174 1 4-2 5-4 13-1 3-5 22-1 3q-3 29-4 58h-1v-47l1-3 1-5v-4l1-3 1-12h2v-3q1-7 4-12 3-6 3-13 1-4 4-6"/><path fill="#62c4e5" d="M81 223h1v10l-1 3v5l-1 6v32l1 7v10l3 18-1 6q-13-48-2-97"/><path fill="#3a106d" d="m285 339 3 1q10 3 19 2h4l10 1-4 2h-11l-10-1 1 3-1 4h-3v-2h-2l-7-2-2 1-6-4v-2l-2-1q5-5 11-2"/><path fill="#0262ef" d="m114 419 1 3 3-1q5 3 9 8l3 2v4l5 1-5 4-3-1v2l2 1-1 3h-4v-3l-5-1v-5l-3 1v-2l-2-1 4-1-1-3 4-3-2-4-5 1-2-3z"/><path fill="#4085e3" d="m176 469 5 1v2h10l1-3 8 3 3 1 2 1 3 1 6 2-2 1v2h2v2q-15-1-28-7l-12-4z"/><path fill="#92daf0" d="M119 216h1l-1 12q-2 16-2 34v2q-1 19 3 37v7q-6-9-6-21l-1-3v-19q1-25 6-49"/><path fill="#79aef0" d="M332 124v1h-2q-33-1-65 10l-2 1q-10 4-21 10h-3v-3q4-2 9-2v-3l21-6v-2q11-4 21-5h3q19-2 39-1"/><path fill="#b7abf0" d="m185 206 2 6-3 8-5 15v3q-4 18-3 37v15h-1l-1-25v-2c0-27 0-27 4-36l1-7h2v-3z"/><path fill="#866fa4" d="m288 347 3 1 2 1v2l11 1v2h26l11 1h5c-13 7-36 4-50 0l-15-6-1-2z"/><path fill="#7e34d3" d="m162 327 3 2 2 2 3 4 3 2 1 7 3 1-1 1 2 1 6 6v4l5 5h3v4q-9-2-14-11-4-3-3-6h-2c-11-15-11-15-11-22"/><path fill="#896fa9" d="m245 313 8 5 2 2 1 3 2 1 2 1 2 1c7 3 7 3 8 7l1 2 2 1v2q-4 1-8-1l-8-8-3-2q-3-1-4-6h-2q-3-3-3-8"/><path fill="#6eb7ca" d="M424 240c7 13 4 35 0 49l-6 15-2 1-1-5h2l1-4 3-15 1-3 1-2 1-22v-14"/><path fill="#9de0f2" d="M89 334q4 4 5 10h2v2l1 2 3 1 1 3 2 1v2q0 7 5 13l3 1 1 3 3 2 1 5 3 1 1 3 2 1 1 6h-2l-2-5h-2l-3-4-2-3-2-3-2-3q-8-12-15-26l-1-2q-3-5-3-10"/><path fill="#9dddef" d="m463 138 7 10 1 2 9 18c2 6 2 6 1 9l-5-7-1-1-1-3-1-2-3-7h-2l-9-15 1-2 4 7h2z"/><path fill="#4c91ed" d="m99 402 9 6 12 11v2l2 1 5 3v2l2 1q4 1 6 5-6-1-10-3l-2-5q-3-3-8-3v-3l-4-2v-2l-2 1-4-1-1-8-3-1v-2h-2v4h-5z"/><path fill="#7ad7dd" d="M398 190h2l4 4 2 3 1 4h2l6 10 1 2q8 13 8 27-3-4-5-9l-1-3-2-6-1-4-1-3-4-4v-2l-2-1q-4-5-6-12l-4-3z"/><path fill="#7eb3f2" d="M320 96v1l-19 1h-10l-3 1h-5l-2 3h-6l-9 2-1-2-4-1q29-8 59-5"/><path fill="#2eb8bf" d="M327 159h12v6l3 1-16-2-22-2v-1q12-2 23-2"/><path fill="#7516d1" d="M221 377v3h2l3 3 1 2-5 1-1 3-13-5q4-9 13-7"/><path fill="#c7f3fe" d="m106 61 2 1-2 2C88 77 88 77 75 94l-6 7-1 3-6 3-5 5 6-10h2l1-2 3-5h2l1-2 5-6 2-3 3-2 3-3 2-2 2-2 4-2v-2l7-5 1-2z"/><path fill="#9a9eea" d="m177 151 2 1-3 5-4 7-2 3-2 8v4l-2 1v-3h-3v2l-3 7h-2l-1 3v-6l3-5 1-2 10-17 1-2 3-4h2z"/><path fill="#b8ebf1" d="m388 200 7 10 1 3c6 13 9 23 9 38v3q1 13-3 26l-1 3-1 3v-9q10-36-8-68l-2-4z"/><path fill="#21b4ea" d="M305 44v1h-22l-32 3h-15v-1q35-8 69-3"/><path fill="#60ccf6" d="M166 29q-2 6-7 8h-4q-5 1-8 4-3 2-7 2v3l-8-1 7-5 2-1 2-1 2-1 5-2 5-3 3-1 3-1z"/><path fill="#63d1f2" d="M339 53q14 0 27 6l11 4v2l1 3 2 1-12-4-19-8z"/><path fill="#cdfbfc" d="M327 158h10l7 2h-27l-8 1h2l19 3h3l2 1h2l5 3-12-2q-16-2-34-2v-2q15-5 31-4"/><path fill="#8ad9f0" d="m136 125 2 1-1 1-3 4q-3 8-10 11l-2 1-2 5c-8 10-8 10-12 12q2-6 7-11l1-2 3-4h2l1-2 3-5h2l1-2 5-6 2-2z"/><path fill="#84b1e7" d="M444 177c5 3 7 12 9 17l1 2v9l-7-10-1-2c-3-5-3-5-3-8h3v-2h-2z"/><path fill="#7194ec" d="M218 119v2l-2 1-11 8-2 2-3 3q-3 5-9 7l-12 9q5-9 13-15h2v-2h2v-2l4-3 2-1 3-2 2-2c8-5 8-5 11-5"/><path fill="#1071f0" d="m322 97 21 2 3 1q15 2 27 9v1h-5l-3-1-8-1h-2q-5-2-8-5l-16-4h-3l-6-1z"/><path fill="#15b1bf" d="M391 192h2l-2 6 2 1-2 1 2 1v3l6 1v4q-1 8 3 14l4 1-3 7-1-2-8-19-1-2-5-7-1-7h3z"/><path fill="#9adcef" d="M242 459h11l3 1h5l6 1h26l21-2h7c-5 5-15 4-21 4h-23q-17 1-35-3z"/><path fill="#b390e4" d="m176 290 4 13q2 12 7 22c2 6 2 6 1 9v-2l-4 1v-2q0-5-3-10l-1-2-1-2-2-12v-2z"/><path fill="#92e1f7" d="M256 47v1h-2a363 363 0 0 0-56 12l10-4 2-1 6-2 3-1 7-1v-2l11-1h2z"/><path fill="#61c9f1" d="M154 76h6q-5 8-14 12h-2v2l-3 3-2 1-2 1-2-1 3-6 1-2 3-3v2h2l2-4h4l1-2h3z"/><path fill="#673bca" d="M174 243h1v3c0 26 0 26 2 51l1 16h-1v-4l-1-3-1-4-1-6-2-9v-17c0-23 0-23 2-27"/><path fill="#1177e0" d="M56 254h1v2l2 37v14q-3-6-3-13l-2-6v-21z"/><path fill="#b4e8f7" d="M81 223h1v13l-1 3v3l-1 4q-2 5-1 11v2l-1 8v19h-1q-4-31 4-63"/><path fill="#0f66e7" d="m110 432 2 1 5 2 2 1 1 5 4 1v3h2l6 2v4l2 1q-9-3-17-9l-2-1q-5-2-6-7z"/><path fill="#38c4ee" d="M328 26q18 4 32 12l4 2h-7l-2-1h-2v-2h-5v-2h-3l-7-3-6-2-4-2z"/><path fill="#37347e" d="M381 337h2q-1 4-5 5l-2 1-2 2-2 1c-13 6-13 6-21 6l2-1 3-4 4-1v2h3l1-3 5-1v-3l4-3h7z"/><path fill="#5dd1f1" d="M284 17q24 0 44 8v1q-11 0-23-3v-2h-3l-16-2z"/><path fill="#06b9f5" d="M432 99h3v2h2l2 5h2c4 5 4 5 4 9l-1 2h-2v-3h-2q-4-1-7-6c-2-5-2-5-1-9"/><path fill="#0eb9f5" d="m380 69 8 1 1 3 7-1v2h4v5h2l4 4 1 3-9-5-15-9-3-2z"/><path fill="#51bce3" d="M344 453q-15 6-31 8l-5 1h-38v-1h18l7-1h2l6-1 8-1q14-1 27-6z"/><path fill="#cfabed" d="M232 384h3v2l6 2v2h2l10 5q15 9 32 14-5 1-10-1l-2-1-17-8-9-2v-2l-3-1q-3-1-5-4l-3-1-3-1z"/><path fill="#1e61e3" d="M218 119h4l-1 4h-2l-1 3-10 2v7l-7 1q0-4 2-6c9-9 9-9 15-9z"/><path fill="#74d8f1" d="M407 86q7 1 11 6l3 1v2h2l4 5c6 8 6 8 15 14v4h-2v-2h-2l-3-4-7-7-3-2v-2h-2v-2h-2v-2l-2-1-7-5-3-2-2-2z"/><path fill="#07bec6" d="m383 177 2 1v2h2l1 4-9 3-1-5-4 1-2-4 3-1 2 1v-2z"/><path fill="#72caea" d="M94 182v7l-3 11-3 5-1 5-4 13h-1l4-19 1-3z"/><path fill="#1f74e8" d="M349 102v1q-8 1-17-2h-2l-2 2-1-3h-23v-2c14-4 31 0 45 4"/><path fill="#74cce9" d="m232 424 15 4 18 4v2h5v1q-11 1-21-3l-4-1-5-2v-2h-3z"/><path fill="#79b3f3" d="M373 110q13 3 25 12l2 2 5 5-11-4v-2h-3v-2h-4v-2h-3l-1-3-5-3-3-1-2-1z"/><path fill="#1b73db" d="M20 296h1v5h2v4l4 14h4v2q-2 7 1 14-4-2-5-7l-1-2-1-3v-3q-5-11-5-24"/><path fill="#136ae4" d="m294 122 3 1h19l8-1h16q3-1 7 3h-54z"/><path fill="#86d3ed" d="m148 364 5 5v2h2v2h2q5 4 4 7h2v2l2 1 6 4 2 2 1 3-7-5-7-4-4-3h2l-1-3-2-1v-2h-2v-2l-4-1z"/><path fill="#196bdf" d="m176 469 5 1v2h10l1-3 9 3v1h-7l3 5q-11-2-23-7z"/><path fill="#4c98e6" d="m14 269 4 9 1 2 3 32c-5-5-5-16-6-23l-1-6z"/><path fill="#aee5f2" d="M415 412q-2 6-8 8l-2-1 1-2q-11 2-22 6l-6-1 2-1 10-2 3-1z"/><path fill="#4e8fe3" d="m43 362 2 2 4 1v3h2l2 7h2v2h2l2 9q-5-5-9-11v-2h-2l-2-4-2-3z"/><path fill="#bda6f0" d="M146 223h1l-1 13h2l-1 16h-1l-1 21h-1v-18c0-25 0-25 2-32"/><path fill="#e8d2f8" d="m285 410 16 3 3 1 6 1v2l-25-1h-3l-8-3h2l23 2-14-4z"/><path fill="#6f1ec5" d="m202 358 10 8 1 2 4 4h-6l-1 2v-3l-1-2-1-4-6 3-2-5 2-3z"/><path fill="#71cde8" d="m125 321 4 8 8 16 1 2-1 2-1-3-2-1q-4-1-5-6l1-6h-2l-2-1z"/><path fill="#be8fe5" d="m209 385 3 1 7 1q4 2 6 5l2 2 1 3 3 1 9 4q-3 2-7-1l-4-2-2-1q-10-5-18-12z"/><path fill="#9892bb" d="M367 326v2h-3v2l-1 2-3 1-2 2q-6 3-12 2l-1 2-5-1 9-4 14-7z"/><path fill="#77b0f1" d="M359 129q7 0 12 2l8 2 3 1 5 1v2l3 1v2l-16-5-15-5z"/><path fill="#0262ed" d="M182 465q6 1 10 3l-1 5-10-1-1-4z"/><path fill="#95c2f1" d="m67 396 5 5 2 2 1 3h4l3 4 5 6 3 4 2 2 1 2-9-6v-2h-2q-5-4-4-7h-2v-2h-2l-4-4-2-3z"/><path fill="#6bc8e8" d="m384 422-1 3-15 2v2h-15l11-4 2-1z"/><path fill="#8eb9f2" d="m273 132-7 3-2 1-10 4-10 5-5 1v-3q4-2 9-2v-3l19-6z"/><path fill="#7adaf4" d="M418 78h2v2h2v2h2v2h2l5 5 2 3 4 7-2-1-2-2-2-1-4-3q-4-3-5-7l-3-1z"/><path fill="#1c91ab" d="m404 232 2 7 2 1v20l-1 3v3l-3 2z"/><path fill="#15a3ec" d="m94 73 1 3-3 5-2 2q-4 4-9 5l-4 2c12-15 12-15 17-17"/><path fill="#4c93ea" d="M390 140q9-1 16 6 4 3 5 7l-12-6-1-1q-5-2-8-6"/><path fill="#79d1eb" d="M193 444h15l-1 3 13 6c-7 3-16-3-22-6l-5-2z"/><path fill="#54c1e9" d="m167 424 5 5v2h4v4l5 2-2 1-6-3v-2h-2l-9-5v-2l-2-1z"/><path fill="#0662e6" d="M86 416h9l1 4q-1 3 3 5l5 2v1q-5 1-9-2l-3-3-2-2-4-4z"/><path fill="#88d0e6" d="M255 72v3l-5 2-2 1h-7 2v-2h-10q5-3 10-3l4-1z"/><path fill="#7dd4ee" d="M163 133q0 4-3 7l-5 6h-2l-1 2q-1 6-6 8l1-10 5-3q7-3 11-10"/><path fill="#94d0f6" d="M23 176q1 6-1 10l-2 13-1 10-2 1-2 4q0-10 3-20l1-3z"/><path fill="#71c5ef" d="M76 90q0 5-4 9l-3 2-1 3-6 3-5 5 6-10h2l1-2q3-5 8-8z"/><path fill="#67a7e9" d="m62 313 4 11 1 2 3 16-1-2h-2v-3h-2l-3-15v-9"/><path fill="#75cde8" d="M232 76q-3 4-7 5l-7 1-8 2h-7q14-8 29-8"/><path fill="#91e4f7" d="m364 41 10 4 3 1 13 8-1 2-2-1-3-1-3-1-5-1-1-3-5-2v-2l-6-3z"/><path fill="#a093b6" d="m245 313 8 5 2 2 1 3 4 2-6-1 1 3-3-1-2-5h-2q-3-3-3-8"/><path fill="#bd91e5" d="m209 363 12 11 11 8-1 2-5-2-5-2v-3h-2v-2h-2l-3-5-3-3-2-2z"/><path fill="#87d6ed" d="m170 99 2 1-5 5h-2v2l-9 4-6 6h-3v-2l4-4 3-2 4-1v-2l6-4 3-2z"/><path fill="#685795" d="m343 338 1 2q-7 5-18 4l-2-1 4-1v-2z"/><path fill="#2b488a" d="m389 305 1 3-3 5-1 3q-1 3-5 4l-1 2h-6l2-2z"/><path fill="#0a6bf3" d="M429 156h2q4 8 4 18l-4-3v-3h-2l1-5-3-2z"/><path fill="#68c8e6" d="M213 89h6q-1 4-6 7l-3 1q-3 3-7 3l1-5h4v-2h3v-2h2z"/><path fill="#38bef4" d="m130 45 2 1q-3 4-8 5l4 2q-2 3-6 3h-7l4-4h2v-2l4-3 3-1z"/><path fill="#3a54e1" d="m186 144 1 4-4 2v7l-6 2-2-1v2l-2-1 3-4h2v-2q1-4 5-6l2-2z"/><path fill="#737ce7" d="m177 151 2 1-3 5-4 7-2 3-2 8v4l-2 1q-2-6 1-13l3-4 3-7 2-3h2z"/><path fill="#7cb1eb" d="m85 377 8 11 6 9-1 2q-4-1-5-5l-5-6-1-7h-2z"/><path fill="#7883b0" d="m397 327 2 1q-7 7-15 12l-2-1q1-3 4-5h4v-5q3-2 7-2"/><path fill="#88d8f0" d="M126 187h3l-3 14-1 2-4 12v-10l1-2 2-14z"/><path fill="#baf0fb" d="m145 156-2 7q-6 9-9 17-3 7-5 7 3-9 8-17l2-9h2v-2z"/><path fill="#65c6e6" d="m136 125 2 1-1 1-3 4q-3 8-10 11l-2 1 2-3 3-5z"/><path fill="#d0cae2" d="m380 340 2 1c-23 15-23 15-36 14l3-1v-2h4l15-5 2-2z"/><path fill="#50bfc9" d="M416 219h3l3 8v2l2 11q-7-10-8-21"/><path fill="#16b5c0" d="m362 175 5 1 3 1 3 3 1 2h4l2 4h2l2 7-3-2-13-11z"/><path fill="#b5ddfb" d="m322 97 22 2 3 1 16 5q-7 3-13-1l-11-4h-2l-15-2z"/><path fill="#93c2f2" d="M73 351q4 4 5 10l2 4 1 2 3 5 1 3-1 2-1-2-2-3-1-3-5-4v-7h-2z"/><path fill="#9684e2" d="M179 225h2l-3 17h-2l-1 2q0-9 4-19"/><path fill="#917aac" d="m288 347 3 1 2 1v2h2l5 4-13-3-3-2-4-3z"/><path fill="#5fd3f6" d="m364 59 13 4v2l1 3 2 1-10-3-3-2-3-3z"/><path fill="#9ca6ef" d="M210 170q0 5-4 9l-9 12q-2-4 1-9h3v-5l2-1q5-1 7-6"/><path fill="#13a7ee" d="m141 83 1 2h2v-2h3l-1 2-2 5-4 3-2 1-1 1-2-1 3-6 1-2z"/><path fill="#b8b1ed" d="M152 197h1q1 7-2 13l-1 7q1 2-3 4 0-8 3-16v-2z"/><path fill="#91d7f7" d="m115 113-1 4-2 2-12 14 1-8h2l1-5 3 1z"/><path fill="#3d2d77" d="M370 343h2q0 3-4 5l-3 1-4 2-10 1 2-1 3-4 4-1v2h3l1-3h6z"/><path fill="#9a60db" d="m189 334 5 6v3h2l2 6h-5l-2-8h-2z"/><path fill="#a0d7f6" d="m74 174 1 4-2 5-4 11v2l-2 6h-1q0-8 3-16l2-6q0-3 2-5z"/><path fill="#70adf5" d="M421 161h4v3h2v-2h4l-2 6h2q3 3 3 8l-1-2-2-2-2-2-4-3v-2h-2v-2h-2z"/><path fill="#87b6f1" d="M237 111v2l-9 2v2h-4l-1 3-5-1q3-4 8-6l2-1c6-2 6-2 9-1"/><path fill="#18a7d9" d="M238 76h5v2q-6 5-14 2l-1-2q4-2 10-2"/><path fill="#6fcff2" d="M168 69h7q-1 4-6 4l-8 5-2 1-2-1 3-1 1-4h3v-2h4z"/><path fill="#1daeeb" d="m148 37 2 1c-5 5-5 5-10 5v3l-8-1q3-4 9-5z"/><path fill="#61c5e3" d="M89 334q4 4 5 10h2v2l1 2 3 1 1 3 2 1-1 5c-6-8-6-8-6-11l-3-1-2-4-1-2z"/><path fill="#c5e8fc" d="M58 282h1l3 30q-3-4-4-9v-21"/><path fill="#7c93ec" d="m216 158 6 1v2h-2v2l-3 3h-2v2h-2v2h-2l1-6h3v-3l2-1z"/><path fill="#3e226d" d="m296 342 25 1q-4 3-9 2h-11q-2 1-5-3"/><path fill="#e0f5fa" d="m471 159 5 6 1-2 3 5 1 3v6l-7-10-2-3z"/><path fill="#31baeb" d="M240 15v2h-7l-4 1-4 1h-13l12-3h2z"/><path fill="#3b166b" d="m268 332 5 4v2q-4 1-8-1l-4-4q4-3 7-1"/><path fill="#b8cbf7" d="m199 130 2 1q-5 7-12 10l-3 3-7 7q5-9 13-15h2v-2h2v-2z"/><path fill="#176ddf" d="m59 376 4 5-2 1v2l3 2 1 5q-5-2-8-8v-5z"/><path fill="#a2caf5" d="m31 338 1 2 4 4 1 4 2 1 1 5 2 3 1 3-1 2c-11-18-11-18-11-24"/><path fill="#7898f1" d="M230 149h5l-11 10-2-1 2-4h-2v-2h8z"/><path fill="#50c2e9" d="m458 134 5 1 2 4v3l1 5h-2l-3-4-2-3z"/><path fill="#97d2f4" d="M45 129v8l-2 1v2l-4 4-1 3h-2q2-7 6-12l2-4z"/><path fill="#93c2f5" d="m405 129 6 3v2h2v2l2 1 5 4-1 2-6-2-1-5h-2l-3-3-1-2z"/><path fill="#7fdaf4" d="m437 99 11 13v2h-3c-4-5-4-5-4-8h-2q-2-3-2-7"/><path fill="#6ec9e6" d="m148 412 7 8 5 1v4l-9-5v-2l-2-1-4-2 1-2 2 1z"/><path fill="#cde6f2" d="M398 286v7l-1 2v2h-3l-1 3q-2 5-6 9 0-5 3-8z"/><path fill="#766be4" d="m155 189 1 3-1 2h2l-1 6v3q-1 3-4 5v-9q1-6 3-10"/><path fill="#61d0f2" d="m454 123 7 9-1 4-1-1-2 2-3-4 1-7z"/><path fill="#9cdff9" d="m134 95 1 2-1 1-17 15v-3l3-3v-2l1-2 6-2z"/><path fill="#90dbef" d="m148 364 5 5v2h2v2h2l4 5-1 2-5-4v-2h-2v-2l-4-1z"/><path fill="#3951ea" d="m210 167 1 3-3 4-2 2-1 1v-2l-1-2-3-1 1-3 5-1v2h2z"/><path fill="#43baee" d="m113 56 2 1-9 10-2 2h-3q4-8 12-13"/><path fill="#85b5ee" d="m120 421 7 4v2l2 1q4 1 6 5-6-1-10-3l-2-5z"/><path fill="#7414d3" d="m259 402 8 3-1 4q-6 0-10-4l3-1z"/><path fill="#b88de2" d="m194 372 6 4 5 1v3l3 1 1 4-9-6-3-3z"/><path fill="#096be9" d="m32 336 5 1 2 4-2 4-4-3z"/><path fill="#6cd5da" d="M398 190h2q7 7 10 16-4 0-6-3l-1-5q-1-3-5-5z"/><path fill="#ba97e7" d="m183 319 4 7 1 3v5-2l-4 1v-2l-1-4z"/><path fill="#96c2f5" d="M444 177q4 1 4 5l1 2v6l-4-4 1 5-4-4 1-2h3v-2h-2z"/><path fill="#9bc7f5" d="m261 102-4 2-2 1q-8 5-18 5 4-4 10-5l3-1z"/><path fill="#72d8f3" d="m390 56 13 7v2c-8-1-8-1-9-4l-1-2h-3z"/><path fill="#dcc1f5" d="M162 327q5 5 7 11l6 11h-2c-11-15-11-15-11-22"/><path fill="#8dd8ef" d="M86 203h1q0 11-4 20h-1z"/><path fill="#69bbef" d="M30 158h1v8l-3 1v5h-2l-1 3q-1-5 2-10l1-2z"/><path fill="#1171eb" d="M368 110q9 1 16 6l-2 1-1 3h-3v-2h2q-4-5-11-6l-2-1z"/><path fill="#a8ecfb" d="m425 101 9 7 8 6v4h-2v-2h-2l-3-4-7-7-3-2z"/><path fill="#9bdff3" d="M192 90q-4 4-9 5h-3l-2 1v3h-6q4-4 9-6l2-1 2-1 2-1z"/><path fill="#15a4ed" d="M134 90h3q-1 5-5 8l-2 2-2 1-2-5 8-4z"/><path fill="#77daf3" d="m380 69 8 1 1 4 3 1 4 1 1 3-12-6-3-1-2-2z"/><path fill="#136cdc" d="M38 349q5 4 6 11h2l2 5h-3l-3-6-2-2z"/><path fill="#6046d3" d="m148 220 2 1q1 7-2 13l-2 2v-7l1-3z"/><path fill="#8fd3f4" d="M98 133q0 5-4 10l-2 2-3 4v-4l1-3 1-3 1-2h4z"/><path fill="#92e4f9" d="m403 65 9 6 2 1 2 2v2h2v2l-6-4-4-1v-2h-2z"/><path fill="#7a40b6" d="m286 411 18 4v1l-18-1z"/><path fill="#6cc8eb" d="M84 320h3q3 7 2 14-3-3-4-7z"/><path fill="#af87e2" d="m155 312 5 2 1 7 1 3v3q-3-3-5-7l-1-3z"/><path fill="#17a6b7" d="m397 213 3 3 1 5 3 3h2l-3 7-2-6-2-3z"/><path fill="#7aabed" d="M120 444c9 1 9 1 12 3v4l2 1-9-4-3-2-2-1z"/><path fill="#61c1e4" d="m223 421 9 2v2l8 2v1q-8 0-15-4v-2z"/><path fill="#176cde" d="M67 393h5v2q0 3 2 5l2 2-1 4-4-5-2-3q-2-2-2-5"/><path fill="#94dbee" d="m138 349 4 4v3h2l4 6-1 2q-6-3-6-6v-2h-2z"/><path fill="#711ece" d="m195 348 3 1 2 6-4 2-1-2-3-4z"/><path fill="#147c9f" d="M404 268h1v5h2v3h-2v5l-3 2v-9l1-3z"/><path fill="#01beca" d="M345 163h7v6l-7-2z"/><path fill="#07bbc7" d="M326 161h9q3 0 5 2l-1 2 3 1h-6v-3h-8z"/><path fill="#5395ea" d="M148 459h10l2 4 2 2-14-5z"/><path fill="#82d4ed" d="m125 321 4 6 1 3v6-3h-2l-2-1z"/><path fill="#0960f0" d="m222 119-1 4h-2l-1 3-6 1q2-8 10-8"/><path fill="#85e0f9" d="m347 33 11 4 4 2 2 1h-7l-2-1h-2v-3l-6-2z"/><path fill="#106cee" d="m439 176 3 1v2h2v4h2v2l-3 1c-4-4-4-4-4-8z"/><path fill="#4e90e9" d="M130 432q6 0 10 4l2 2-12-3z"/><path fill="#58bfe1" d="m406 417-1 5-6 2 2-4-5-1q5-2 10-2"/><path fill="#c297e5" d="M240 403q6 0 11 2l3 2 3 1v1l-11-2-4-2-2-1z"/><path fill="#721ec9" d="m194 368 3 1v2l3 1v2h2l1 3q-6-1-10-6z"/><path fill="#c9a5ed" d="m198 349 2 1v2h2l3 4 2 2 1 5-2-2-5-3-2-5v-2z"/><path fill="#a3dbde" d="m311 161 3 1h6v1l-24 1v-2z"/><path fill="#71ceec" d="M197 99h5v3l-3 3-2 1-2 1-2-1 2-2z"/><path fill="#1264e0" d="M182 465q6 0 10 4h-5v-2l-5 1v3l4 1-2 1-3-1-1-4z"/><path fill="#b887e3" d="m257 409 19 1-4 1v2l-15-3z"/><path fill="#332278" d="m351 337 2 4-1 2h-3v-3l-3 1-3-3z"/><path fill="#323982" d="m376 325-7 4-2 2h-3v-3h3v-2q4-3 9-1"/><path fill="#0565ee" d="m258 105-5 4-1 2h-4v-2l-2-1q5-3 12-3"/><path fill="#1a6fdb" d="M77 366q6 5 8 11l-1 4-1-2-3-3-1-7h-2z"/><path fill="#7424c5" d="m181 356 6 4q2 3 5 2v4q-5-1-8-5l-2-2z"/><path fill="#99c7f6" d="m397 144 5 1 3 1 5 4 1 3-10-5-2-2-2-1z"/><path fill="#2456f4" d="m199 137 1 3-2 2-1 2h-2v-2l-4 2 1-4q4-4 7-3"/><path fill="#0d98f1" d="m89 139 3 1-5 10-1-2 1-3-2-1z"/><path fill="#0160f3" d="M236 113v3h-4v2l-8 2v-3h4v-2z"/><path fill="#0967e3" d="m114 419 1 3 3-1 7 6-5-1-1-3-5 1-2-3z"/><path fill="#6e23d0" d="M186 332h2l2 6-5 1-1-5z"/><path fill="#abd3f7" d="M420 143h2v2h2l4 4 2 3 1 4h-3l-1-3-6-6z"/><path fill="#1168da" d="m212 478 9 1v3h-7v-2h-2z"/><path fill="#a4ccf5" d="m93 424 2 1q4 3 8 3v4l4 2-5-1v-2l-2-1-7-4z"/><path fill="#792fc5" d="M228 396q7 0 12 4l4 2h-7l-3-2-4-2-2-1z"/><path fill="#ceacec" d="m183 360 4 3 2 1 5 5v3h-2v-2h-2v-2h-2c-5-5-5-5-5-8"/><path fill="#73aeef" d="m43 362 2 2 4 1v3h2l-1 5h-2l-2-4-2-3z"/><path fill="#2d4b85" d="m401 320 3 1c-5 7-5 7-9 8v-2h-2v-3h4z"/><path fill="#8ebdd2" d="M421 291v7l-1 2-2 3-1 2-2-2v-3h2l1-3z"/><path fill="#6dd8f4" d="m364 41 10 4v2l4 2-1 3-2-3-5-2v-2l-6-3z"/><path fill="#95dff6" d="m166 29-3 4-11 2q2-3 6-4l3-1z"/><path fill="#7116d2" d="m202 360 3 1v3l2 1-5 3-2-5z"/><path fill="#e4dde9" d="m245 313 8 5 2 2 1 1-1 2-4-4-5-1z"/><path fill="#1a528d" d="M402 313h2v2l3 1-2 4h-3l-1-6z"/><path fill="#0c538f" d="m395 303 2 1-2 1zm-5 2 5 1q-2 6-5 6h-2z"/><path fill="#672dce" d="M150 289h2v3l3 10h-3q-2-6-2-13"/><path fill="#1e85e1" d="M17 211h2l-1 6v4l-1 3-2 1v-8z"/><path fill="#0ab5c6" d="M391 192h2l-2 6 2 1-5 1-1-4v-2h3z"/><path fill="#1470ea" d="M400 128q7 0 10 6l-1 2-2-1q-2-3-6-3z"/><path fill="#d8f3f8" d="M255 72v3l-7 2-2-1 2-1-3-2z"/><path fill="#0dbdf4" d="m379 64 4 1v4l4-2v3l-9-2z"/><path fill="#95e5f9" d="M339 53q9-2 16 4-5 1-10-1l-3-1-3-1z"/><path fill="#8dddf0" d="M169 431h7v4l5 2-2 1-6-3v-2l-4-1z"/><path fill="#1469e0" d="M92 422h5v2l7 3v1q-4 1-8-1l-4-4z"/><path fill="#1aa5d5" d="m127 393 5 1q3 4 3 9l-4-4-2-2z"/><path fill="#7220c9" d="M225 381q6 0 8 5l-6-1v-2l-3-1zm-3 5 4 1-4 2z"/><path fill="#7676a7" d="M367 326v2h-3v2l-1 2-3 1-2 2v-4h2l1-3z"/><path fill="#76daf4" d="m397 79 7 1 3 6q-6-2-10-7"/><path fill="#0361ec" d="M194 473h8v2h3v2h-5v-2h-6z"/><path fill="#5897e9" d="m168 455 6 2 1 3 2 1-6 1v-5l-3 1z"/><path fill="#293b80" d="M384 329h5l1 5-6-1z"/><path fill="#a3d0f4" d="M62 313q4 8 4 17l-2-1-1-6-1-3z"/><path fill="#cbe1f3" d="M449 196h3q4 3 3 8h-3z"/><path fill="#25bbc0" d="M362 175c9 2 9 2 12 6l1 3-9-5-2-2-2-1z"/><path fill="#6eacf0" d="m363 106 10 3v1l-11-1z"/><path fill="#ae79e0" d="M177 352h5v3l2 1-2 1v3c-5-6-5-6-5-8"/><path fill="#9da0c0" d="m390 333 2 1-8 6-2-1q1-3 4-5z"/><path fill="#6f28c8" d="M161 320q5 4 6 11l-5-4z"/><path fill="#1c73e7" d="m418 142 3 2v3l2 1 4 4-5-1c-4-5-4-5-4-9"/><path fill="#21baed" d="M358 40q7 1 14 5h-8l-2-1-2-1v-2z"/><path fill="#93e4f7" d="m328 26 14 4h-9l-3-1-2-1z"/><path fill="#98c0f2" d="M157 448q6 2 11 6l-6 1v-2h-2v-3l-3-1z"/><path fill="#59c1e5" d="M361 441h8q-2 4-7 4h-3l-1-2h3z"/><path fill="#93dbef" d="m181 438 8 1v2h2v2l2 1-8-3-2-1-2-1z"/><path fill="#186ad9" d="m110 413 3 3 2 1 5 5h-5v-3l-2-1-3-3z"/><path fill="#1ea7d8" d="m172 392 10 7-2 1-2-1q-2-3-6-3z"/><path fill="#56bee3" d="m116 379 3 1 1 3 2 1 1 6h-2l-2-4-2-3z"/><path fill="#b083df" d="m189 334 5 6v3h-3v-2h-2z"/><path fill="#15a5d8" d="m184 93 2 1-2 2-2 4h-4v-4z"/><path fill="#7fddf3" d="m417 94 6 1 4 6h-4v-2h-2v-2l-4-2z"/><path fill="#88d7f8" d="m138 88 3 1 3-1v2l-3 3-2 1-2 1-2-1z"/><path fill="#89d7ef" d="m203 85-4 4h-7q4-6 11-4"/><path fill="#9ce0f7" d="m130 45 2 1q-4 5-11 6v-2l4-3 3-1z"/><path fill="#6bd0f8" d="m137 41 3 1v4l-8-1z"/><path fill="#85b4ee" d="m176 469 5 1v2l4 1h-7l-2-1-2-1z"/><path fill="#82b6ee" d="m110 437 6 1 4 6-10-6z"/><path fill="#b68be1" d="M232 384h3v2l6 2v2l-7-1z"/><path fill="#c49be9" d="M209 385c7 1 7 1 9 5l1 2q-6-2-10-7"/><path fill="#3f226a" d="m254 324 7 3-1 3q-4-1-5-4z"/><path fill="#84bcea" d="m59 301 2 1 1 5v5q-3-2-3-5z"/><path fill="#6d2fc7" d="M154 304q4 4 5 10l-4-2z"/><path fill="#aa9de9" d="M149 211h1v8l-3 2c0-7 0-7 2-10"/><path fill="#70cbe7" d="m98 174 2 4-2 4h-3z"/><path fill="#96ddef" d="M216 80v2q-6 3-13 2 6-4 13-4"/><path fill="#0361eb" d="m86 408 2 4-1 3-3-1-2-5z"/><path fill="#1674df" d="m61 316 2 1v9h-3z"/><path fill="#ace7ec" d="M420 225q4 5 4 13v2q-3-3-4-10v-3z"/><path fill="#15b8c0" d="m397 191 1 2 4 2q3 2 2 5-5-1-7-6z"/><path fill="#4f49db" d="m158 186 3 4-4 4h-2z"/><path fill="#25bfc5" d="M369 169q6 2 11 6l-2 1-3-1v-2l-5-1z"/><path fill="#1aa8db" d="m108 160 3 6h-6z"/><path fill="#0ea4da" d="M113 154h4l1 4-2 1-3-2-2 3-2-1z"/><path fill="#589bf2" d="m409 149 6 3 1 5q-4-1-6-5z"/><path fill="#9be3f5" d="M463 138q4 3 6 8v3h-4v-3z"/><path fill="#195af3" d="m207 132 1 3-7 1-1-3z"/><path fill="#7edbf5" d="M448 114c6 5 6 5 6 9l-5-3z"/><path fill="#a9cef6" d="M162 465h8l-1 2 5 2c-4 1-4 1-8-1l-2-1-2-1z"/><path fill="#8ab9f3" d="M148 442q5 2 9 6l-11-3z"/><path fill="#98def3" d="m151 418 9 3v4l-9-5z"/><path fill="#86b9f1" d="M93 390q5 4 6 9l-4-1q-2-3-2-8"/><path fill="#1a75df" d="m66 337 1 3h2l1 8-1-3h-2l-2-7z"/><path fill="#2e578c" d="m389 305 1 3q-3 7-6 7h-2l1-2 2-2 2-2z"/><path fill="#82b6cf" d="M398 286v7l-1 2v2h-2q0-5 3-11"/><path fill="#0564ef" d="M290 124v2l-9 1v-3z"/><path fill="#49bde5" d="m187 106 6 1q-2 4-5 4h-2z"/><path fill="#6bccf2" d="M198 59v2l-8 1-1-2z"/><path fill="#802ec5" d="m255 406 9 3q-5 1-10-1z"/><path fill="#0166e7" d="m59 376 4 5-6 1z"/><path fill="#701ecd" d="M176 348c6 2 6 2 8 5l-2 1v-2l-4 1z"/><path fill="#360b6c" d="m281 338-2 5-5-1q4-5 7-4"/><path fill="#cdafef" d="m151 300 4 4v8q-3-4-4-8z"/><path fill="#8adbe1" d="M414 211q4 1 4 5v3h-3z"/><path fill="#1ba6d5" d="M133 170h3l-5 10z"/><path fill="#1fb5e7" d="m458 134 4 2v6l-4-4z"/><path fill="#0c60ec" d="m241 136 3 1v3h2v-2h2v3h-7z"/><path fill="#a2e1f2" d="m145 117 2 1-3 4-1 1q-2 3-5 2v-2h2v-2z"/><path fill="#16b9eb" d="m404 81 9 7q-5-1-9-6z"/><path fill="#732dc2" d="M202 358q6 2 8 7l-5-1z"/><path fill="#b8a4cb" d="m269 332 11 4q-5 1-10-1z"/><path fill="#7029c2" d="m167 331 2 1 1 5 1 2v2q-4-4-5-9z"/><path fill="#006dec" d="m31 319-1 8-2-1-1-6z"/><path fill="#1da5d5" d="m81 300 3 1-1 9q-2-5-2-10"/><path fill="#92cff2" d="M27 165h1v7h-2l-1 3q-1-5 2-10"/><path fill="#a6d0f7" d="M435 162h2l4 7-1 2q-5-4-5-9"/><path fill="#6ecce9" d="M145 156q0 5-5 9l-1-4h2v-2z"/><path fill="#23b6ef" d="m452 122 4 4-1 5-3-1 1-2z"/><path fill="#1ca7d8" d="M141 124v3l-5 3-2-1q3-4 7-5"/><path fill="#5696eb" d="m234 110 3 1v2l-7 2-2-1 4-1v-2z"/><path fill="#9de8f9" d="m387 73 4 1 3 1 2 1 1 3q-6-1-10-6"/><path fill="#84d6f5" d="M168 69h7q-1 4-5 4l-3-1z"/><path fill="#a9cef4" d="M186 474h7l4 4-11-3z"/><path fill="#76b0f3" d="M55 377h2l2 9-5-5z"/><path fill="#b0aeee" d="M159 180h1v6h-2l-1 3v-6z"/><path fill="#64b9ed" d="M45 129v8l-3 1 1-4v-2z"/><path fill="#8fbdf1" d="M153 461h6l3 4-9-3z"/><path fill="#22a9da" d="m176 433 5 1 2 4-7-3z"/><path fill="#9a64dd" d="M184 329h4l1 5-1-2-4 1z"/><path fill="#9fe1f1" d="M94 182q2 5-1 9h-2z"/><path fill="#1e6cdf" d="m445 186 4 2v4l-3-1z"/><path fill="#4154d7" d="m205 171 4 1-5 5v-5z"/><path fill="#05a9f9" d="M154 72h5l1 4-6-2z"/><path fill="#1abbed" d="M381 53q5 0 9 3v2z"/></svg>